<svg xmlns="http://www.w3.org/2000/svg" xmlns:xlink="http://www.w3.org/1999/xlink" width="595.02" height="118" viewBox="0 0 595.02 118"><defs><clipPath id="a"><rect width="595.02" height="118" fill="none"/></clipPath></defs><g transform="translate(0 0)" clip-path="url(#a)"><path d="M581.965,106.946h0a1.886,1.886,0,0,1,3.246-1.924,1.878,1.878,0,0,1-.662,2.584,1.76,1.76,0,0,1-.96.266,1.879,1.879,0,0,1-1.624-.926M158.951,98.63a1.906,1.906,0,1,1,.038,0Zm9.467-1.9a1.887,1.887,0,1,1,3.772-.113,1.88,1.88,0,0,1-1.831,1.942H170.3a1.893,1.893,0,0,1-1.886-1.829m407.4.905a1.885,1.885,0,1,1,2.642.434,2.053,2.053,0,0,1-1.113.358,1.882,1.882,0,0,1-1.529-.792m-428.257.453a1.891,1.891,0,0,1,.283-3.772,1.889,1.889,0,0,1-.151,3.772Zm32.152-1.9a1.893,1.893,0,0,1,3.772-.321,1.909,1.909,0,0,1-1.733,2.037H181.6a1.875,1.875,0,0,1-1.886-1.716m-43.5.7h0a1.873,1.873,0,0,1-1.622-2.112,1.906,1.906,0,0,1,2.131-1.622,1.881,1.881,0,0,1,1.6,2.112,1.851,1.851,0,0,1-1.846,1.641,1.246,1.246,0,0,1-.264-.019m54.765-1.829a1.891,1.891,0,1,1,2.11,1.641v-.019a1.075,1.075,0,0,1-.245.019,1.885,1.885,0,0,1-1.865-1.641m-66.026-.038a1.9,1.9,0,0,1-1.49-2.223,1.884,1.884,0,1,1,1.85,2.261,2.335,2.335,0,0,1-.36-.038m77.228-1.584a1.886,1.886,0,1,1,3.713-.66,1.906,1.906,0,0,1-1.526,2.188,2.05,2.05,0,0,1-.339.019,1.877,1.877,0,0,1-1.848-1.546m11.106-2.131a1.883,1.883,0,1,1,2.246,1.433,1.419,1.419,0,0,1-.4.038,1.894,1.894,0,0,1-1.85-1.471m-99.458,1.15a1.91,1.91,0,1,1,.471.057,2.014,2.014,0,0,1-.471-.057M224.3,88.729a1.891,1.891,0,1,1,2.3,1.339,1.37,1.37,0,0,1-.471.075,1.906,1.906,0,0,1-1.829-1.414m344.64.075a1.9,1.9,0,0,1,.226-2.659,1.886,1.886,0,1,1,1.226,3.34,1.929,1.929,0,0,1-1.452-.681m-466.072.377a1.888,1.888,0,0,1,1.188-3.583v.019a1.848,1.848,0,0,1,1.19,2.376,1.873,1.873,0,0,1-1.773,1.282,1.63,1.63,0,0,1-.605-.094M235.215,85.73a1.879,1.879,0,1,1,2.337,1.264,1.71,1.71,0,0,1-.526.094,1.888,1.888,0,0,1-1.81-1.358m-143.08-.509h0a1.886,1.886,0,1,1,2.47-1.037,1.917,1.917,0,0,1-1.754,1.188,1.954,1.954,0,0,1-.717-.151m153.886-2.848a1.881,1.881,0,1,1,3.562-1.207,1.853,1.853,0,0,1-1.188,2.376,1.624,1.624,0,0,1-.6.113,1.9,1.9,0,0,1-1.773-1.282m315.447-1.9a1.887,1.887,0,1,1,2.716-2.621,1.876,1.876,0,0,1-1.358,3.187,1.882,1.882,0,0,1-1.358-.566m-479.762.113a1.877,1.877,0,1,1,.809.189,1.812,1.812,0,0,1-.809-.189m174.989-1.941a1.892,1.892,0,1,1,2.433,1.111v-.019a1.715,1.715,0,0,1-.66.132,1.891,1.891,0,0,1-1.773-1.224m10.559-4.056a1.887,1.887,0,1,1,2.453,1.037,1.831,1.831,0,0,1-.7.132,1.911,1.911,0,0,1-1.756-1.169m-195.675.679h0a1.883,1.883,0,1,1,1.848-3.281,1.909,1.909,0,0,1,.717,2.584,1.88,1.88,0,0,1-1.641.943,1.786,1.786,0,0,1-.924-.245m481.874-2.621A1.889,1.889,0,0,1,556,69.851a1.864,1.864,0,0,1,.111,2.661,1.822,1.822,0,0,1-1.394.62,1.9,1.9,0,0,1-1.263-.49M277.7,70.21a1.883,1.883,0,1,1,2.472.962,1.761,1.761,0,0,1-.754.17A1.863,1.863,0,0,1,277.7,70.21M61.81,69.323a1.88,1.88,0,1,1,2.056-3.149,1.855,1.855,0,0,1,.547,2.6,1.891,1.891,0,0,1-2.6.547m226.208-3.753a1.886,1.886,0,1,1,2.508.905,2.018,2.018,0,0,1-.811.17,1.878,1.878,0,0,1-1.7-1.075m256.927-.226A1.885,1.885,0,0,1,547.3,62.4a1.909,1.909,0,0,1,.3,2.659,1.871,1.871,0,0,1-1.473.7,1.908,1.908,0,0,1-1.188-.415M52.438,62.78A1.893,1.893,0,0,1,54.7,59.743v.019a1.875,1.875,0,0,1-1.13,3.376,1.919,1.919,0,0,1-1.132-.358m245.782-2.093a1.886,1.886,0,1,1,2.508.905,2.012,2.012,0,0,1-.792.189,1.909,1.909,0,0,1-1.716-1.094m237.769-2.037h0a1.884,1.884,0,1,1,2.623-.471,1.879,1.879,0,0,1-2.623.471M308.5,55.953a1.866,1.866,0,0,1,.962-2.489,1.888,1.888,0,1,1,.756,3.6,1.875,1.875,0,0,1-1.718-1.113m-265-.3a1.887,1.887,0,1,1,2.433-2.885,1.9,1.9,0,0,1,.226,2.659,1.867,1.867,0,0,1-2.659.226m483.1-3.093a1.9,1.9,0,0,1-.641-2.584,1.882,1.882,0,1,1,1.62,2.848,1.825,1.825,0,0,1-.979-.264M318.87,51.464a1.92,1.92,0,0,1,1.037-2.47,1.886,1.886,0,0,1,1.435,3.489,2.045,2.045,0,0,1-.717.151,1.931,1.931,0,0,1-1.756-1.169M34.994,48h0a1.893,1.893,0,1,1,1.3.526,1.881,1.881,0,0,1-1.3-.526m294.382-.756A1.886,1.886,0,1,1,332.9,45.9a1.869,1.869,0,0,1-1.094,2.433,1.745,1.745,0,0,1-.681.134,1.883,1.883,0,0,1-1.752-1.228m187.454-.132a1.9,1.9,0,1,1,.867.207,1.833,1.833,0,0,1-.867-.207M339.993,43.336a1.906,1.906,0,0,1,1.169-2.412,1.884,1.884,0,0,1,1.226,3.562,1.818,1.818,0,0,1-.622.113,1.879,1.879,0,0,1-1.773-1.264m166.729-1.018h0a1.883,1.883,0,1,1,1.509-3.451,1.878,1.878,0,0,1-.756,3.6,1.789,1.789,0,0,1-.752-.151m-156-2.584a1.9,1.9,0,0,1,1.226-2.376v.019a1.879,1.879,0,1,1,1.132,3.583v.019a1.951,1.951,0,0,1-.568.075,1.87,1.87,0,0,1-1.79-1.32m-323.766.132a1.9,1.9,0,0,1,2.774-2.584,1.9,1.9,0,0,1-.1,2.678,1.869,1.869,0,0,1-1.28.509,1.938,1.938,0,0,1-1.4-.6m469.373-1.641a1.943,1.943,0,1,1,.622.094,1.778,1.778,0,0,1-.622-.094M361.547,36.472a1.888,1.888,0,0,1,3.642-1,1.878,1.878,0,0,1-1.32,2.32,2.345,2.345,0,0,1-.511.057,1.909,1.909,0,0,1-1.81-1.377m10.959-2.885a1.871,1.871,0,0,1,1.375-2.263h.021a1.88,1.88,0,0,1,.867,3.659,1.828,1.828,0,0,1-.434.057,1.871,1.871,0,0,1-1.829-1.452M485.676,34.8A1.884,1.884,0,1,1,488,33.511a1.856,1.856,0,0,1-1.81,1.358,1.632,1.632,0,0,1-.509-.074M383.538,31.116a1.883,1.883,0,1,1,2.2,1.471,1.143,1.143,0,0,1-.356.038,1.875,1.875,0,0,1-1.848-1.509m91.294.962h0a1.881,1.881,0,1,1,.792-3.677,1.879,1.879,0,0,1-.4,3.715,2.788,2.788,0,0,1-.4-.038m-455.4-.811a1.871,1.871,0,1,1,1.452.679,1.865,1.865,0,0,1-1.452-.679M394.664,29.06a1.887,1.887,0,1,1,2.15,1.584,1.632,1.632,0,0,1-.3.019,1.863,1.863,0,0,1-1.846-1.6m69.154.962h.019a1.878,1.878,0,1,1,2.148-1.565,1.914,1.914,0,0,1-1.865,1.6,1.449,1.449,0,0,1-.3-.038M405.864,27.5a1.889,1.889,0,1,1,2.076,1.66.707.707,0,0,1-.207.019,1.882,1.882,0,0,1-1.869-1.678m46.847,1.15a1.884,1.884,0,1,1,.358-3.751,1.879,1.879,0,0,1-.17,3.751ZM417.125,26.42a1.89,1.89,0,0,1,3.772-.245,1.918,1.918,0,0,1-1.773,2.02h-.113a1.9,1.9,0,0,1-1.886-1.775m24.42,1.471a1.927,1.927,0,1,1,.075,0Zm-13.126-2a1.922,1.922,0,0,1,1.869-1.924,1.9,1.9,0,0,1,.057,3.791h-.04a1.9,1.9,0,0,1-1.886-1.867m-416-3.677h0a1.879,1.879,0,1,1,1.529.773,1.857,1.857,0,0,1-1.529-.773M5.951,12.748A1.885,1.885,0,1,1,9.137,10.73a1.869,1.869,0,0,1-.583,2.6,1.775,1.775,0,0,1-1,.3,1.906,1.906,0,0,1-1.6-.886M.2,2.7A1.854,1.854,0,0,1,1.067.188a1.893,1.893,0,0,1,2.527.886,1.872,1.872,0,0,1-.886,2.508,1.828,1.828,0,0,1-.813.189A1.859,1.859,0,0,1,.2,2.7" transform="translate(0 0)" fill="#fff"/><path d="M322.156,70.153H307.9a.943.943,0,1,1,0-1.886h13.312V54.955a.943.943,0,0,1,1.886,0V69.21a.943.943,0,0,1-.943.943" transform="translate(271.921 47.847)" fill="#fff"/></g></svg>