<svg xmlns="http://www.w3.org/2000/svg" xmlns:xlink="http://www.w3.org/1999/xlink" width="16.629" height="89.805" viewBox="0 0 16.629 89.805"><defs><clipPath id="a"><rect width="16.629" height="89.805" fill="none"/></clipPath></defs><g clip-path="url(#a)"><path d="M8.315,65.807a.714.714,0,0,1-.5-.208l-7.6-7.6a.711.711,0,0,1,1.006-1.006l7.1,7.1,7.1-7.1a.711.711,0,0,1,1.006,1.006l-7.6,7.6a.714.714,0,0,1-.5.208" transform="translate(0 23.998)" fill="#fff"/><path d="M4.842,78.246a1.423,1.423,0,1,1,1.423,1.423,1.426,1.426,0,0,1-1.423-1.423m0-8.536a1.423,1.423,0,1,1,1.423,1.423A1.417,1.417,0,0,1,4.842,69.71m0-8.536A1.423,1.423,0,1,1,6.265,62.6a1.417,1.417,0,0,1-1.423-1.423m0-8.536a1.423,1.423,0,1,1,1.423,1.423,1.426,1.426,0,0,1-1.423-1.423m0-8.536a1.423,1.423,0,1,1,1.423,1.423A1.417,1.417,0,0,1,4.842,44.1m0-8.536a1.423,1.423,0,1,1,1.423,1.423,1.417,1.417,0,0,1-1.423-1.423m0-8.536a1.423,1.423,0,1,1,1.423,1.423A1.426,1.426,0,0,1,4.842,27.03m0-8.536a1.423,1.423,0,1,1,1.423,1.423,1.417,1.417,0,0,1-1.423-1.423m0-8.536a1.423,1.423,0,1,1,1.423,1.423A1.417,1.417,0,0,1,4.842,9.959m0-8.536A1.423,1.423,0,1,1,6.265,2.845,1.426,1.426,0,0,1,4.842,1.423" transform="translate(2.046)" fill="#fff"/></g></svg>